<svg width="400" height="125" viewBox="0 0 400 125" fill="none" xmlns="http://www.w3.org/2000/svg">
<rect width="400" height="125" fill="#111111"/>
<path d="M274.528 16H218.196C206.962 16 197.854 24.8242 197.854 35.7097V90.2903C197.854 101.176 206.962 110 218.196 110H274.528C285.761 110 294.869 101.176 294.869 90.2903V35.7097C294.869 24.8242 285.761 16 274.528 16Z" fill="#9752FA"/>
<path d="M298.846 91.1077V34.8916H313.663C319.104 34.8916 323.702 35.9735 327.451 38.1378C331.255 40.3019 334.162 43.4955 336.167 47.7185C338.175 51.8883 339.181 56.9822 339.181 62.9997C339.181 69.0171 338.175 74.1111 336.167 78.2811C334.162 82.4512 331.255 85.6446 327.451 87.8615C323.702 90.0258 319.104 91.1077 313.663 91.1077H298.846ZM311.605 79.7854H313.98C317.943 79.7854 320.954 78.3866 323.014 75.5889C325.075 72.7912 326.104 68.595 326.104 62.9997C326.104 57.4043 325.075 53.2081 323.014 50.4104C320.954 47.6127 317.943 46.2139 313.98 46.2139H311.605V79.7854Z" fill="white"/>
<path d="M251.642 91.1077V79.7854H263.29V46.2139H251.642V34.8916H287.775V46.2139H276.127V79.7854H287.775V91.1077H251.642Z" fill="white"/>
<path d="M202.068 91.1077L216.965 34.8916H232.179L247.077 91.1077H234.319L224.572 50.9647L214.826 91.1077H202.068ZM213.083 80.4981L216.094 69.5714H233.051L236.062 80.4981H213.083Z" fill="white"/>
<path d="M174.172 92.375C169.576 92.375 165.641 91.2138 162.366 88.8911C159.143 86.5159 156.66 83.1374 154.917 78.7565C153.227 74.3752 152.381 69.1494 152.381 63.0793C152.381 57.009 153.227 51.7832 154.917 47.4019C156.66 42.968 159.143 39.5635 162.366 37.1879C165.641 34.8126 169.576 33.625 174.172 33.625C179.825 33.625 184.421 35.4988 187.96 39.2465C191.552 42.9416 193.798 48.2728 194.696 55.2406L181.78 55.7949C181.304 52.2053 180.406 49.4605 179.085 47.5602C177.765 45.6599 176.127 44.7099 174.172 44.7099C172.324 44.7099 170.739 45.4226 169.418 46.8476C168.15 48.2728 167.173 50.3579 166.486 53.1027C165.799 55.8475 165.456 59.173 165.456 63.0793C165.456 66.9324 165.799 70.2315 166.486 72.9763C167.173 75.7211 168.15 77.8062 169.418 79.2315C170.739 80.6039 172.324 81.29 174.172 81.29C176.074 81.29 177.712 80.2872 179.085 78.2815C180.512 76.2755 181.463 73.3723 181.938 69.5718L194.854 70.1261C193.956 77.1993 191.711 82.6889 188.119 86.5949C184.527 90.4483 179.878 92.375 174.172 92.375Z" fill="white"/>
<path d="M109.544 91.1077V34.8916H128.007C134.135 34.8916 138.916 36.4223 142.349 39.4838C145.783 42.4927 147.5 46.6099 147.5 51.8357C147.5 54.6331 146.919 57.0612 145.757 59.1201C144.595 61.1787 142.983 62.8149 140.923 64.029C138.916 65.1902 136.644 65.8764 134.108 66.0876L133.791 64.9792C138.123 65.0318 141.346 65.9028 143.459 67.5921C145.625 69.2283 146.866 71.8941 147.183 75.5889L148.451 91.1077H135.535L134.663 79.3104C134.504 77.0406 134.135 75.3516 133.554 74.2429C133.025 73.1343 132.18 72.3955 131.018 72.026C129.909 71.6565 128.429 71.4717 126.58 71.4717H122.302V91.1077H109.544ZM122.302 60.0701H127.531C129.75 60.0701 131.441 59.4632 132.603 58.2491C133.765 57.0351 134.346 55.3196 134.346 53.1023C134.346 50.8854 133.765 49.1963 132.603 48.0352C131.441 46.8211 129.75 46.2139 127.531 46.2139H122.302V60.0701Z" fill="white"/>
<path d="M61 91.1077L75.8972 34.8916H91.1114L106.009 91.1077H93.2507L83.5043 50.9647L73.7576 91.1077H61ZM72.0143 80.4981L75.0256 69.5714H91.9831L94.994 80.4981H72.0143Z" fill="white"/>
</svg>
