<svg width="279" height="94" viewBox="0 0 279 94" fill="none" xmlns="http://www.w3.org/2000/svg">
<path d="M213.528 0H157.196C145.962 0 136.854 8.82425 136.854 19.7097V74.2903C136.854 85.1757 145.962 94 157.196 94H213.528C224.761 94 233.869 85.1757 233.869 74.2903V19.7097C233.869 8.82425 224.761 0 213.528 0Z" fill="#9752FA"/>
<path d="M237.846 75.1077V18.8916H252.663C258.104 18.8916 262.702 19.9735 266.451 22.1378C270.255 24.3019 273.162 27.4955 275.167 31.7185C277.175 35.8883 278.181 40.9822 278.181 46.9997C278.181 53.0171 277.175 58.1111 275.167 62.2811C273.162 66.4512 270.255 69.6446 266.451 71.8615C262.702 74.0258 258.104 75.1077 252.663 75.1077H237.846ZM250.605 63.7854H252.98C256.943 63.7854 259.954 62.3866 262.014 59.5889C264.075 56.7912 265.104 52.595 265.104 46.9997C265.104 41.4043 264.075 37.2081 262.014 34.4104C259.954 31.6127 256.943 30.2139 252.98 30.2139H250.605V63.7854Z" fill="white"/>
<path d="M190.642 75.1077V63.7854H202.29V30.2139H190.642V18.8916H226.775V30.2139H215.127V63.7854H226.775V75.1077H190.642Z" fill="white"/>
<path d="M141.068 75.1077L155.965 18.8916H171.179L186.077 75.1077H173.319L163.572 34.9647L153.826 75.1077H141.068ZM152.083 64.4981L155.094 53.5714H172.051L175.062 64.4981H152.083Z" fill="white"/>
<path d="M113.172 76.375C108.576 76.375 104.641 75.2138 101.366 72.8911C98.1432 70.5159 95.6603 67.1374 93.9169 62.7565C92.2265 58.3752 91.3813 53.1494 91.3813 47.0793C91.3813 41.009 92.2265 35.7832 93.9169 31.4019C95.6603 26.968 98.1432 23.5635 101.366 21.1879C104.641 18.8126 108.576 17.625 113.172 17.625C118.825 17.625 123.421 19.4988 126.96 23.2465C130.552 26.9416 132.798 32.2728 133.696 39.2406L120.78 39.7949C120.304 36.2053 119.406 33.4605 118.085 31.5602C116.765 29.6599 115.127 28.7099 113.172 28.7099C111.324 28.7099 109.739 29.4226 108.418 30.8476C107.15 32.2728 106.173 34.3579 105.486 37.1027C104.799 39.8475 104.456 43.173 104.456 47.0793C104.456 50.9324 104.799 54.2315 105.486 56.9763C106.173 59.7211 107.15 61.8062 108.418 63.2315C109.739 64.6039 111.324 65.29 113.172 65.29C115.074 65.29 116.712 64.2872 118.085 62.2815C119.512 60.2755 120.463 57.3723 120.938 53.5718L133.854 54.1261C132.956 61.1993 130.711 66.6889 127.119 70.5949C123.527 74.4483 118.878 76.375 113.172 76.375Z" fill="white"/>
<path d="M48.5439 75.1077V18.8916H67.0069C73.1347 18.8916 77.9157 20.4223 81.3494 23.4838C84.7831 26.4927 86.5 30.6099 86.5 35.8357C86.5 38.6331 85.9188 41.0612 84.7566 43.1201C83.5945 45.1787 81.9832 46.8149 79.923 48.029C77.9157 49.1902 75.6441 49.8764 73.1082 50.0876L72.7913 48.9792C77.1231 49.0318 80.3457 49.9028 82.4586 51.5921C84.6246 53.2283 85.8661 55.8941 86.183 59.5889L87.451 75.1077H74.5346L73.6629 63.3104C73.5045 61.0406 73.1347 59.3516 72.5537 58.2429C72.0255 57.1343 71.1803 56.3955 70.0179 56.026C68.9087 55.6565 67.4293 55.4717 65.5805 55.4717H61.3016V75.1077H48.5439ZM61.3016 44.0701H66.5312C68.7502 44.0701 70.4406 43.4632 71.6027 42.2491C72.7648 41.0351 73.346 39.3196 73.346 37.1023C73.346 34.8854 72.7648 33.1963 71.6027 32.0352C70.4406 30.8211 68.7502 30.2139 66.5312 30.2139H61.3016V44.0701Z" fill="white"/>
<path d="M0 75.1077L14.8972 18.8916H30.1114L45.0086 75.1077H32.2507L22.5043 34.9647L12.7576 75.1077H0ZM11.0143 64.4981L14.0256 53.5714H30.9831L33.994 64.4981H11.0143Z" fill="white"/>
</svg>
